<mxfile host="app.diagrams.net" modified="2024-01-01T17:13:06.129Z" agent="Mozilla/5.0 (Windows NT 10.0; Win64; x64) AppleWebKit/537.36 (KHTML, like Gecko) Chrome/120.0.0.0 Safari/537.36" etag="ZKTVBjFgoNOAN_GInsDz" version="22.1.16" type="device">
  <diagram name="Страница — 1" id="N-qAw4Ii0so-HZ5WBmBv">
    <mxGraphModel dx="3592" dy="1509" grid="0" gridSize="10" guides="1" tooltips="1" connect="1" arrows="1" fold="1" page="1" pageScale="1" pageWidth="827" pageHeight="1169" background="none" math="0" shadow="0">
      <root>
        <mxCell id="0" />
        <mxCell id="1" parent="0" />
        <mxCell id="5nABSl6TricY1-DJC5i2-2" value="&lt;p style=&quot;margin:0px;margin-top:4px;text-align:center;&quot;&gt;&lt;b&gt;Token&lt;/b&gt;&lt;/p&gt;&lt;hr size=&quot;1&quot;&gt;&lt;p style=&quot;margin:0px;margin-left:4px;&quot;&gt;- token: string&lt;/p&gt;&lt;hr size=&quot;1&quot;&gt;&lt;p style=&quot;margin:0px;margin-left:4px;&quot;&gt;+ Token(): string&lt;/p&gt;&lt;p style=&quot;margin:0px;margin-left:4px;&quot;&gt;+ get_token: string&lt;/p&gt;" style="verticalAlign=top;align=left;overflow=fill;fontSize=12;fontFamily=Helvetica;html=1;whiteSpace=wrap;" parent="1" vertex="1">
          <mxGeometry x="-56" y="744" width="233" height="142.52" as="geometry" />
        </mxCell>
        <mxCell id="5nABSl6TricY1-DJC5i2-7" value="Data_Base" style="shape=datastore;whiteSpace=wrap;html=1;" parent="1" vertex="1">
          <mxGeometry x="-369" y="967.74" width="124" height="128" as="geometry" />
        </mxCell>
        <mxCell id="5nABSl6TricY1-DJC5i2-23" value="&lt;p style=&quot;margin:0px;margin-top:4px;text-align:center;&quot;&gt;&lt;b&gt;TokenService&lt;/b&gt;&lt;/p&gt;&lt;hr size=&quot;1&quot;&gt;&lt;p style=&quot;margin:0px;margin-left:4px;&quot;&gt;- adapter: iAdapter&lt;/p&gt;&lt;p style=&quot;margin:0px;margin-left:4px;&quot;&gt;- repository: iRepository&lt;/p&gt;&lt;hr size=&quot;1&quot;&gt;&lt;p style=&quot;border-color: var(--border-color); margin: 0px 0px 0px 4px;&quot;&gt;+ TokenService(iAdapter, iRepository)&lt;/p&gt;&lt;p style=&quot;border-color: var(--border-color); margin: 0px 0px 0px 4px;&quot;&gt;&lt;br&gt;&lt;/p&gt;" style="verticalAlign=top;align=left;overflow=fill;fontSize=12;fontFamily=Helvetica;html=1;whiteSpace=wrap;" parent="1" vertex="1">
          <mxGeometry x="-408" y="516" width="223" height="209" as="geometry" />
        </mxCell>
        <mxCell id="5nABSl6TricY1-DJC5i2-28" value="&lt;p style=&quot;margin:0px;margin-top:4px;text-align:center;&quot;&gt;&lt;b&gt;&lt;i&gt;&amp;lt;&amp;lt;Interface&amp;gt;&amp;gt; iAdapter&lt;/i&gt;&lt;/b&gt;&lt;/p&gt;&lt;hr size=&quot;1&quot;&gt;&lt;p style=&quot;border-color: var(--border-color); margin: 0px 0px 0px 4px;&quot;&gt;+ get_token(User): Token&lt;/p&gt;&lt;p style=&quot;border-color: var(--border-color); margin: 0px 0px 0px 4px;&quot;&gt;+ check_token(Token): bool&lt;/p&gt;&lt;p style=&quot;border-color: var(--border-color); margin: 0px 0px 0px 4px;&quot;&gt;&lt;span style=&quot;border-color: var(--border-color); background-color: initial;&quot;&gt;+ delete_token(Token): void&lt;/span&gt;&lt;/p&gt;" style="verticalAlign=top;align=left;overflow=fill;fontSize=12;fontFamily=Helvetica;html=1;whiteSpace=wrap;" parent="1" vertex="1">
          <mxGeometry x="-782" y="399" width="192.1256" height="157.48" as="geometry" />
        </mxCell>
        <mxCell id="5nABSl6TricY1-DJC5i2-31" value="&lt;p style=&quot;margin:0px;margin-top:4px;text-align:center;&quot;&gt;&lt;b&gt;TokenRepo&lt;/b&gt;&lt;/p&gt;&lt;hr size=&quot;1&quot;&gt;&lt;p style=&quot;border-color: var(--border-color); margin: 0px 0px 0px 4px;&quot;&gt;+ create_token(User, string): void&lt;/p&gt;&lt;p style=&quot;border-color: var(--border-color); margin: 0px 0px 0px 4px;&quot;&gt;+ read_token(User): Token&lt;/p&gt;&lt;p style=&quot;border-color: var(--border-color); margin: 0px 0px 0px 4px;&quot;&gt;+ update_token(User, Token): void&lt;/p&gt;&lt;p style=&quot;border-color: var(--border-color); margin: 0px 0px 0px 4px;&quot;&gt;+ delete_token(Token): void&lt;/p&gt;" style="verticalAlign=top;align=left;overflow=fill;fontSize=12;fontFamily=Helvetica;html=1;whiteSpace=wrap;" parent="1" vertex="1">
          <mxGeometry x="-782" y="953" width="188.976" height="157.48" as="geometry" />
        </mxCell>
        <mxCell id="5nABSl6TricY1-DJC5i2-32" value="&lt;p style=&quot;margin:0px;margin-top:4px;text-align:center;&quot;&gt;&lt;i style=&quot;border-color: var(--border-color); font-weight: 700;&quot;&gt;&amp;lt;&amp;lt;Interface&amp;gt;&amp;gt; iRepository&lt;/i&gt;&lt;/p&gt;&lt;hr size=&quot;1&quot;&gt;&lt;p style=&quot;border-color: var(--border-color); margin: 0px 0px 0px 4px;&quot;&gt;+ create_token(User, string): void&lt;/p&gt;&lt;p style=&quot;border-color: var(--border-color); margin: 0px 0px 0px 4px;&quot;&gt;+ read_token(User): Token&lt;/p&gt;&lt;p style=&quot;border-color: var(--border-color); margin: 0px 0px 0px 4px;&quot;&gt;+ update_token(User, Token): void&lt;/p&gt;&lt;p style=&quot;border-color: var(--border-color); margin: 0px 0px 0px 4px;&quot;&gt;+ delete_token(Token): void&lt;/p&gt;" style="verticalAlign=top;align=left;overflow=fill;fontSize=12;fontFamily=Helvetica;html=1;whiteSpace=wrap;" parent="1" vertex="1">
          <mxGeometry x="-781.87" y="674" width="192" height="157.48" as="geometry" />
        </mxCell>
        <mxCell id="5nABSl6TricY1-DJC5i2-33" value="" style="endArrow=block;dashed=1;endFill=0;endSize=12;html=1;rounded=0;entryX=0.5;entryY=0;entryDx=0;entryDy=0;exitX=0.5;exitY=1;exitDx=0;exitDy=0;" parent="1" source="jAwit4PaNwHXPdE0aUkR-1" target="5nABSl6TricY1-DJC5i2-28" edge="1">
          <mxGeometry width="160" relative="1" as="geometry">
            <mxPoint x="-668.7399999999998" y="122.99999999999977" as="sourcePoint" />
            <mxPoint x="-408" y="170" as="targetPoint" />
          </mxGeometry>
        </mxCell>
        <mxCell id="5nABSl6TricY1-DJC5i2-34" value="" style="endArrow=block;dashed=1;endFill=0;endSize=12;html=1;rounded=0;exitX=0.5;exitY=0;exitDx=0;exitDy=0;entryX=0.5;entryY=1;entryDx=0;entryDy=0;" parent="1" source="5nABSl6TricY1-DJC5i2-31" target="5nABSl6TricY1-DJC5i2-32" edge="1">
          <mxGeometry width="160" relative="1" as="geometry">
            <mxPoint x="-663" y="1624" as="sourcePoint" />
            <mxPoint x="-632" y="1413" as="targetPoint" />
          </mxGeometry>
        </mxCell>
        <mxCell id="5nABSl6TricY1-DJC5i2-35" value="" style="endArrow=diamondThin;endFill=0;endSize=24;html=1;rounded=0;exitX=1.004;exitY=0.468;exitDx=0;exitDy=0;exitPerimeter=0;entryX=0;entryY=0.25;entryDx=0;entryDy=0;edgeStyle=orthogonalEdgeStyle;" parent="1" source="5nABSl6TricY1-DJC5i2-28" target="5nABSl6TricY1-DJC5i2-23" edge="1">
          <mxGeometry width="160" relative="1" as="geometry">
            <mxPoint x="-568" y="605" as="sourcePoint" />
            <mxPoint x="-408" y="605" as="targetPoint" />
          </mxGeometry>
        </mxCell>
        <mxCell id="5nABSl6TricY1-DJC5i2-36" value="" style="endArrow=diamondThin;endFill=0;endSize=24;html=1;rounded=0;entryX=0;entryY=0.75;entryDx=0;entryDy=0;exitX=1;exitY=0.5;exitDx=0;exitDy=0;edgeStyle=orthogonalEdgeStyle;" parent="1" source="5nABSl6TricY1-DJC5i2-32" target="5nABSl6TricY1-DJC5i2-23" edge="1">
          <mxGeometry width="160" relative="1" as="geometry">
            <mxPoint x="-568" y="605" as="sourcePoint" />
            <mxPoint x="-408" y="605" as="targetPoint" />
          </mxGeometry>
        </mxCell>
        <mxCell id="5nABSl6TricY1-DJC5i2-39" value="Use" style="endArrow=open;endSize=12;dashed=1;html=1;rounded=0;entryX=0;entryY=0.5;entryDx=0;entryDy=0;exitX=1;exitY=0.5;exitDx=0;exitDy=0;" parent="1" source="5nABSl6TricY1-DJC5i2-31" target="5nABSl6TricY1-DJC5i2-7" edge="1">
          <mxGeometry width="160" relative="1" as="geometry">
            <mxPoint x="-456" y="779" as="sourcePoint" />
            <mxPoint x="-296" y="779" as="targetPoint" />
          </mxGeometry>
        </mxCell>
        <mxCell id="5nABSl6TricY1-DJC5i2-40" value="" style="shape=folder;fontStyle=1;spacingTop=10;tabWidth=40;tabHeight=14;tabPosition=left;html=1;whiteSpace=wrap;fillColor=none;strokeColor=#007FFF;strokeWidth=7;" parent="1" vertex="1">
          <mxGeometry x="-808" y="923" width="1014.17" height="210" as="geometry" />
        </mxCell>
        <mxCell id="5nABSl6TricY1-DJC5i2-41" value="" style="shape=folder;fontStyle=1;spacingTop=10;tabWidth=40;tabHeight=14;tabPosition=left;html=1;whiteSpace=wrap;fillColor=none;strokeColor=#FF9933;strokeWidth=7;" parent="1" vertex="1">
          <mxGeometry x="-810" y="341.5" width="1014.1712" height="558" as="geometry" />
        </mxCell>
        <mxCell id="5nABSl6TricY1-DJC5i2-42" value="" style="shape=folder;fontStyle=1;spacingTop=10;tabWidth=40;tabHeight=14;tabPosition=left;html=1;whiteSpace=wrap;fillColor=none;strokeColor=#33FF33;strokeWidth=7;" parent="1" vertex="1">
          <mxGeometry x="-808" y="67" width="1014.17" height="262" as="geometry" />
        </mxCell>
        <mxCell id="8vRCdp9rLOngcFGMXUnF-2" value="&lt;p style=&quot;margin:0px;margin-top:4px;text-align:center;&quot;&gt;&lt;b&gt;User&lt;/b&gt;&lt;/p&gt;&lt;hr size=&quot;1&quot;&gt;&lt;p style=&quot;margin:0px;margin-left:4px;&quot;&gt;- id:int&lt;/p&gt;&lt;p style=&quot;margin:0px;margin-left:4px;&quot;&gt;- login: string&lt;/p&gt;&lt;p style=&quot;margin:0px;margin-left:4px;&quot;&gt;- password: string&lt;/p&gt;&lt;p style=&quot;margin:0px;margin-left:4px;&quot;&gt;- name: string&lt;/p&gt;&lt;p style=&quot;margin:0px;margin-left:4px;&quot;&gt;- email: string&lt;/p&gt;&lt;p style=&quot;margin:0px;margin-left:4px;&quot;&gt;- phone: string&lt;/p&gt;&lt;hr size=&quot;1&quot;&gt;&lt;p style=&quot;margin:0px;margin-left:4px;&quot;&gt;+ User (string. string, string, string, string)&lt;/p&gt;&lt;p style=&quot;margin:0px;margin-left:4px;&quot;&gt;+ get_login(): string&lt;/p&gt;&lt;p style=&quot;margin:0px;margin-left:4px;&quot;&gt;+ get_password(): string&lt;/p&gt;&lt;p style=&quot;margin:0px;margin-left:4px;&quot;&gt;+ get_name(): string&lt;/p&gt;&lt;p style=&quot;margin:0px;margin-left:4px;&quot;&gt;+ get_email(): string&lt;/p&gt;&lt;p style=&quot;margin:0px;margin-left:4px;&quot;&gt;+ get_phone(): string&lt;/p&gt;" style="verticalAlign=top;align=left;overflow=fill;fontSize=12;fontFamily=Helvetica;html=1;whiteSpace=wrap;" parent="1" vertex="1">
          <mxGeometry x="-56" y="457" width="234" height="226" as="geometry" />
        </mxCell>
        <mxCell id="jAwit4PaNwHXPdE0aUkR-1" value="&lt;p style=&quot;margin:0px;margin-top:4px;text-align:center;&quot;&gt;&lt;b&gt;Token&lt;/b&gt;&lt;/p&gt;&lt;hr size=&quot;1&quot;&gt;&lt;p style=&quot;margin:0px;margin-left:4px;&quot;&gt;- user: User&lt;/p&gt;&lt;p style=&quot;margin:0px;margin-left:4px;&quot;&gt;- token: Token&lt;/p&gt;&lt;hr size=&quot;1&quot;&gt;&lt;p style=&quot;border-color: var(--border-color); margin: 0px 0px 0px 4px;&quot;&gt;+ get_token(User): Token&lt;/p&gt;&lt;p style=&quot;border-color: var(--border-color); margin: 0px 0px 0px 4px;&quot;&gt;&lt;span style=&quot;border-color: var(--border-color); background-color: initial;&quot;&gt;+ check_token(Token): bool&lt;/span&gt;&lt;/p&gt;&lt;p style=&quot;border-color: var(--border-color); margin: 0px 0px 0px 4px;&quot;&gt;&lt;span style=&quot;border-color: var(--border-color); background-color: initial;&quot;&gt;+ delete_token(Token): void&lt;/span&gt;&lt;/p&gt;" style="verticalAlign=top;align=left;overflow=fill;fontSize=12;fontFamily=Helvetica;html=1;whiteSpace=wrap;" vertex="1" parent="1">
          <mxGeometry x="-765.75" y="108" width="156.48" height="175" as="geometry" />
        </mxCell>
        <mxCell id="jAwit4PaNwHXPdE0aUkR-9" value="" style="shape=folder;fontStyle=1;spacingTop=10;tabWidth=40;tabHeight=14;tabPosition=left;html=1;whiteSpace=wrap;fillColor=none;strokeColor=#666666;strokeWidth=7;fontColor=#333333;" vertex="1" parent="1">
          <mxGeometry x="-99" y="360" width="296.83" height="532" as="geometry" />
        </mxCell>
        <mxCell id="jAwit4PaNwHXPdE0aUkR-12" value="Use" style="endArrow=open;endSize=12;dashed=1;html=1;rounded=0;exitX=1;exitY=0.25;exitDx=0;exitDy=0;" edge="1" parent="1" source="5nABSl6TricY1-DJC5i2-23" target="8vRCdp9rLOngcFGMXUnF-2">
          <mxGeometry width="160" relative="1" as="geometry">
            <mxPoint x="-470" y="537" as="sourcePoint" />
            <mxPoint x="-310" y="537" as="targetPoint" />
          </mxGeometry>
        </mxCell>
        <mxCell id="jAwit4PaNwHXPdE0aUkR-13" value="Use" style="endArrow=open;endSize=12;dashed=1;html=1;rounded=0;exitX=1;exitY=0.75;exitDx=0;exitDy=0;entryX=0;entryY=0.25;entryDx=0;entryDy=0;" edge="1" parent="1" source="5nABSl6TricY1-DJC5i2-23" target="5nABSl6TricY1-DJC5i2-2">
          <mxGeometry width="160" relative="1" as="geometry">
            <mxPoint x="-175" y="578" as="sourcePoint" />
            <mxPoint x="-46" y="578" as="targetPoint" />
          </mxGeometry>
        </mxCell>
      </root>
    </mxGraphModel>
  </diagram>
</mxfile>
